<svg id="Layer_1" data-name="Layer 1" xmlns="http://www.w3.org/2000/svg" viewBox="0 0 2000 2000"><defs><style>.cls-1{fill:#fff;}</style></defs><rect width="2000" height="2000" rx="60"/><path class="cls-1" d="M242.18,933.27q-66.27,0-96.26-33.48t-30-90.67V692.63H72.69v-97h43.24V528l131.13-31.39v99H375.62l26.4,97h-155V799.35q0,20.92,10.47,29.65t32.08,8.71a129.63,129.63,0,0,0,41.15-7v87.19Q293.79,933.26,242.18,933.27Z"/><path class="cls-1" d="M399.11,926.3V691.24H351l11.16-95.56h168.1V926.3ZM388.65,551.74V456.88H530.24v94.86Z"/><path class="cls-1" d="M593,926.3V595.68H715.77l3.49,25.11q18.82-12.56,49.87-22.32a220.74,220.74,0,0,1,66.61-9.76q62.07,0,90.68,30.69T955,714.26v212H823.88V727.51q0-22.32-9.76-32.09t-34.18-9.76q-14.66,0-30.34,7t-25.46,16.74V926.3Z"/><path class="cls-1" d="M1107.76,1049.06q-27.9,0-47.08-3.14a203.86,203.86,0,0,1-38-10.12V946.52a99.4,99.4,0,0,0,21.27,5.58,155.65,155.65,0,0,0,21.28,1.4q27.88,0,40.8-7t26.16-27.9L982.91,595.68h137.41l77.42,194.6,75.33-194.6h136.71L1287.72,894.91q-28.6,70.44-70.1,112.3T1107.76,1049.06Z"/><path class="cls-1" d="M242.18,1427.34q-66.27,0-96.26-33.48t-30-90.68V1186.7H72.69v-97h43.24v-67.66L247.06,990.7v99h76l-4.88,97H247.06v106.72q0,20.92,10.47,29.64t32.08,8.72a129.37,129.37,0,0,0,41.15-7V1412Q293.79,1427.32,242.18,1427.34Z"/><path class="cls-1" d="M547.68,1427.34q-57.9,0-102.18-19.18t-69.06-57.55q-24.76-38.35-24.76-94.86,0-78.81,44.64-125.9t133.22-47.08q80.91,0,126.6,41.15t45.69,112.3v57.89H472.35q9.06,26.52,35.57,37.67t71.84,11.16a322.82,322.82,0,0,0,57.55-5.23q28.94-5.24,46.38-12.21v78.82Q634.87,1427.35,547.68,1427.34ZM472.35,1223H588.83v-11.86q0-19.52-12.2-32.08t-42.9-12.56q-34.19,0-47.78,14.3T472.35,1223Z"/><path class="cls-1" d="M750.64,1420.36V1089.75H873.41l3.48,25.11q18.84-12.55,49.87-22.32a220.81,220.81,0,0,1,66.62-9.77q62.07,0,90.67,30.69t28.6,94.86v212H981.52V1221.57q0-22.3-9.77-32.08t-34.17-9.77q-14.66,0-30.35,7t-25.46,16.74v216.92Z"/><path class="cls-1" d="M1317,1543.12q-24.42,0-53-1.74a536,536,0,0,1-54.06-5.93q-25.47-4.18-42.2-9.76V1442a294.21,294.21,0,0,0,43.6,10.46q24.75,4.18,50.57,6.27t47.43,2.1q37,0,58.24-3.84t21.27-13.6q0-8.37-7-10.81t-26.51-2.44h-87.19q-50.91,0-78.47-16.39t-27.55-49.18q0-46,50.92-64.17-28.61-14.64-41.85-37T1158,1206.93q0-64.17,43.59-94.17t125.9-30a353.17,353.17,0,0,1,39.06,2.44q21.62,2.46,31.39,4.54h176.94v79.51h-93.94q12.55,16,12.56,39.06,0,50.92-29.65,80.56t-93.11,29.65q-9.08,0-19.53-1t-19.53-1.74a102,102,0,0,0-26.51,5.58q-11.16,4.18-11.16,14,0,7,6.28,9.41c4.18,1.64,10,2.44,17.44,2.44h76q50.91,0,80.22,23.72t29.29,69.75q0,48.81-45.33,75.68T1317,1543.12Zm11.16-296.44q30.69,0,42.55-10.46t11.86-34.87q0-24.42-11.86-35.58t-42.55-11.16q-28.61,0-41.5,10.81t-12.91,35.93q0,23.72,12.21,34.52T1328.17,1246.68Z"/><path class="cls-1" d="M1688.77,1427.34q-57.9,0-90.68-32.79t-32.78-96.25V1089.75h131.13v198.09q0,43.25,43.94,43.24a75.11,75.11,0,0,0,31.39-7q15.33-7,24.41-17.44V1089.75h131.13v330.61H1804.55l-3.48-25.11q-19.54,14-47.78,23T1688.77,1427.34Z"/><rect class="cls-1" x="1452.89" y="727.18" width="474.41" height="131.17"/></svg>